<?xml version="1.0" encoding="UTF-8"?>
<svg xmlns="http://www.w3.org/2000/svg" width="188" height="54" fill="none">
  <path d="M17.008 0S-3.853 5.451.632 9.158c0 0-.05 1.678 12.453.84h9.684V36.41h9.497V9.997s94.115-1.951 155.141-6.773V0C126.381 4.831 32.266 6.773 32.266 6.773l-25.008.344L18.764 3.97 17.008 0S-3.853 5.451.632 9.158L17.008 0z" fill="#000"></path>
  <path d="M67.35 27.894H47.573c.176 1.296.605 2.256 1.286 2.892.951.913 2.194 1.367 3.73 1.364a5.781 5.781 0 0 0 2.478-.46 5.513 5.513 0 0 0 2.006-1.46l9.718.735c-1.487 2.11-3.28 3.626-5.38 4.548-2.099.923-5.111 1.38-9.036 1.37-3.41 0-6.091-.393-8.045-1.179a11.174 11.174 0 0 1-4.86-3.747c-1.283-1.708-1.926-3.717-1.927-6.028 0-3.29 1.288-5.953 3.865-7.987 2.577-2.035 6.135-3.05 10.675-3.043 3.685 0 6.593.456 8.724 1.367 2.011.815 3.712 2.197 4.871 3.96 1.115 1.728 1.672 3.98 1.67 6.754v.914zm-10.028-3.867c-.199-1.556-.709-2.675-1.544-3.347-.835-.671-1.925-1.001-3.283-1.001-1.566 0-2.818.508-3.756 1.524-.598.634-.974 1.582-1.135 2.828l9.718-.004zm14.658-8.661h9.233v3.45c.887-1.485 1.806-2.517 2.75-3.083.944-.565 2.111-.834 3.501-.834 1.456 0 3.046.369 4.77 1.106l-3.05 5.75c-1.162-.403-2.084-.599-2.758-.599-1.297 0-2.299.436-3.005 1.308-1.02 1.23-1.53 3.529-1.53 6.896v7.051h-9.91V15.366zM93.4 30.569l9.787-.756c.406.952.972 1.633 1.697 2.043.725.41 1.693.615 2.902.615 1.323 0 2.349-.236 3.077-.693.563-.344.85-.775.85-1.284 0-.585-.372-1.028-1.115-1.35-.535-.22-1.945-.5-4.237-.833-3.429-.48-5.809-.932-7.138-1.355a7.53 7.53 0 0 1-3.37-2.102 4.85 4.85 0 0 1-1.37-3.384 4.91 4.91 0 0 1 1.486-3.582c.981-1.01 2.338-1.76 4.071-2.251 1.733-.492 4.051-.738 6.953-.738 3.069 0 5.335.189 6.796.566a9.54 9.54 0 0 1 3.66 1.788 9.355 9.355 0 0 1 2.431 3.265l-9.351.758a2.672 2.672 0 0 0-1.209-1.487 5.884 5.884 0 0 0-2.818-.634c-1.107 0-1.925.163-2.43.488-.506.325-.766.707-.766 1.179 0 .518.324.898.969 1.178.644.28 2.051.502 4.212.707 3.279.302 5.719.724 7.319 1.268 1.601.543 2.828 1.311 3.68 2.302a5.019 5.019 0 0 1 1.271 3.312c0 1.211-.448 2.394-1.343 3.535-.894 1.14-2.309 2.062-4.247 2.74-1.937.68-4.552 1.019-7.877 1.019-4.701 0-8.05-.55-10.045-1.65-1.995-1.1-3.277-2.654-3.845-4.664zm60.629-2.675h-19.77c.178 1.296.604 2.256 1.281 2.892.955.913 2.198 1.367 3.731 1.364.957.003 1.903-.2 2.766-.593a6.169 6.169 0 0 0 1.719-1.327l9.718.735c-1.487 2.11-3.281 3.626-5.382 4.548-2.101.923-5.112 1.38-9.034 1.37-3.414 0-6.097-.393-8.048-1.179a11.164 11.164 0 0 1-4.859-3.747c-1.283-1.708-1.925-3.717-1.925-6.028 0-3.29 1.287-5.953 3.86-7.987 2.574-2.035 6.131-3.05 10.672-3.043 3.686 0 6.594.456 8.725 1.367 2.012.813 3.713 2.195 4.871 3.96 1.117 1.728 1.674 3.98 1.673 6.754l.002.914zm-10.03-3.867c-.196-1.556-.709-2.675-1.541-3.347-.833-.671-1.925-1.001-3.281-1.001-1.569 0-2.822.508-3.759 1.524-.594.634-.976 1.582-1.137 2.828l9.718-.004zm23.552-1.836l-9.416-.816c.357-1.35.865-2.408 1.536-3.181a8.342 8.342 0 0 1 2.899-2.01c.9-.408 2.148-.726 3.732-.943a35.357 35.357 0 0 1 5.134-.34c2.96 0 5.336.136 7.128.408 1.793.272 3.287.837 4.483 1.695a5.905 5.905 0 0 1 1.982 2.521c.461.983.708 2.045.729 3.12v9.289a9.197 9.197 0 0 0 .227 2.326c.242.752.58 1.474 1.006 2.149h-9.264a7.003 7.003 0 0 1-.726-1.237 7.712 7.712 0 0 1-.34-1.334 13.149 13.149 0 0 1-3.85 2.177c-1.963.613-4.02.906-6.086.868-3.067 0-5.396-.58-6.987-1.742-1.596-1.166-2.386-2.592-2.386-4.301 0-1.598.567-2.915 1.719-3.945 1.153-1.03 3.261-1.794 6.349-2.3 3.698-.604 6.093-1.03 7.185-1.28a36.336 36.336 0 0 0 3.487-.96c0-.987-.248-1.682-.744-2.08-.495-.398-1.377-.592-2.639-.592-1.615 0-2.826.21-3.632.632-.627.342-1.14.961-1.526 1.876zm8.553 4.242c-1.356.393-2.77.74-4.242 1.044-2.002.437-3.268.867-3.799 1.291-.552.436-.83.929-.83 1.483-.004.303.067.602.209.873.141.272.348.507.604.687.543.4 1.336.603 2.389.603a7.18 7.18 0 0 0 3.067-.662 4.532 4.532 0 0 0 2.012-1.588 4.562 4.562 0 0 0 .59-2.449v-1.282zm-46.613 22.54H22.486v3.134H129.49v-3.134zm9.515-.403a.858.858 0 0 1 0 .16.511.511 0 0 1-.025.115.158.158 0 0 1-.057.066.095.095 0 0 1-.062.014.445.445 0 0 1-.198-.091 3.788 3.788 0 0 0-.379-.196 3.217 3.217 0 0 0-.56-.2 2.96 2.96 0 0 0-.783-.09 2.424 2.424 0 0 0-.964.184c-.276.12-.521.296-.721.514a2.296 2.296 0 0 0-.456.785 2.978 2.978 0 0 0-.158.98c-.008.358.052.715.176 1.053.103.286.267.55.48.773.201.21.451.37.729.472.295.111.611.167.929.165.205-.002.41-.026.61-.071.201-.043.394-.113.574-.207v-1.799h-1.514a.124.124 0 0 1-.076-.02.117.117 0 0 1-.047-.06.533.533 0 0 1-.048-.254 1.305 1.305 0 0 1 0-.154.267.267 0 0 1 .035-.106.139.139 0 0 1 .052-.058.105.105 0 0 1 .072-.02h2.064a.258.258 0 0 1 .109.02.315.315 0 0 1 .104.056c.031.03.054.067.07.106.014.05.021.1.022.151v2.357a.42.42 0 0 1-.047.216.403.403 0 0 1-.189.158c-.123.06-.249.111-.379.156a4.636 4.636 0 0 1-1.464.25 3.744 3.744 0 0 1-1.343-.222 2.824 2.824 0 0 1-.991-.629 2.727 2.727 0 0 1-.622-.985 3.636 3.636 0 0 1-.221-1.28 3.68 3.68 0 0 1 .236-1.331 2.89 2.89 0 0 1 .659-1.014 2.943 2.943 0 0 1 1.016-.652c.418-.16.865-.24 1.316-.236a3.907 3.907 0 0 1 1.281.207c.148.043.291.104.423.182.089.042.172.093.248.153a.36.36 0 0 1 .089.141c.013.08.017.16.01.24zm9.84 5.208a.157.157 0 0 1 0 .068.131.131 0 0 1-.065.05.594.594 0 0 1-.141.026 2.183 2.183 0 0 1-.248 0 1.682 1.682 0 0 1-.213 0 .516.516 0 0 1-.134-.029.202.202 0 0 1-.074-.059.375.375 0 0 1-.05-.094l-.597-1.46a6.96 6.96 0 0 0-.22-.453 1.45 1.45 0 0 0-.265-.359 1.19 1.19 0 0 0-.365-.235 1.39 1.39 0 0 0-.495-.083h-.58v2.626a.095.095 0 0 1-.022.068.176.176 0 0 1-.067.047 1.287 1.287 0 0 1-.342.04 1.234 1.234 0 0 1-.34-.04.162.162 0 0 1-.072-.047.12.12 0 0 1-.019-.068v-5.71a.286.286 0 0 1 .104-.26.348.348 0 0 1 .218-.073h1.789c.109 0 .205.019.295.03.23.032.454.098.664.196.186.08.355.195.495.337.13.137.23.297.293.472.125.371.125.77 0 1.143a1.386 1.386 0 0 1-.248.436 1.956 1.956 0 0 1-.394.327 3.013 3.013 0 0 1-.521.236c.104.047.202.105.293.172.092.068.176.148.248.236.079.105.15.216.213.332.067.12.136.264.203.415l.577 1.362c.047.115.077.195.094.236a.41.41 0 0 1-.014.115zm-1.294-4.334a1.047 1.047 0 0 0-.171-.61.968.968 0 0 0-.572-.363 2.175 2.175 0 0 0-.283-.047 4.111 4.111 0 0 0-.418-.015h-.726v2.079h.847c.198.002.395-.023.585-.075.151-.05.292-.123.416-.22a.945.945 0 0 0 .248-.332c.05-.134.075-.275.074-.417zm11.79 1.3c.005.457-.058.912-.189 1.351a2.77 2.77 0 0 1-.552 1.023c-.252.283-.57.506-.93.65a3.42 3.42 0 0 1-1.298.224 3.48 3.48 0 0 1-1.266-.205 2.227 2.227 0 0 1-.882-.603 2.493 2.493 0 0 1-.518-.983 4.765 4.765 0 0 1-.171-1.348c-.007-.449.056-.897.186-1.329a2.68 2.68 0 0 1 .557-1.013c.251-.28.568-.5.925-.644a3.49 3.49 0 0 1 1.298-.235c.428-.01.854.06 1.254.205.342.126.645.332.882.598.249.283.429.616.525.974.125.435.185.885.179 1.336zm-.915.062a4.47 4.47 0 0 0-.099-.978 2.278 2.278 0 0 0-.322-.782 1.563 1.563 0 0 0-.61-.516 2.15 2.15 0 0 0-.944-.189 2.05 2.05 0 0 0-.944.2c-.248.129-.46.313-.617.538-.167.235-.283.5-.342.777-.069.31-.104.626-.104.943-.001.336.032.672.1 1.002.052.28.16.546.319.787.15.22.36.4.607.516.296.132.62.195.947.184.329.01.656-.058.951-.198.251-.13.465-.318.622-.545a2.16 2.16 0 0 0 .332-.79c.07-.311.105-.63.104-.949zm11.056.816c.006.341-.053.681-.173 1.004-.109.28-.278.535-.496.749-.222.209-.489.37-.783.471a3.288 3.288 0 0 1-1.048.154 3.054 3.054 0 0 1-.991-.147 2.051 2.051 0 0 1-.743-.436 1.958 1.958 0 0 1-.496-.723 2.744 2.744 0 0 1-.168-1.002v-3.837a.105.105 0 0 1 .019-.068.197.197 0 0 1 .072-.047l.132-.026a1.658 1.658 0 0 1 .413 0l.137.026a.257.257 0 0 1 .067.047c.013.02.02.044.019.069v3.73a2.3 2.3 0 0 0 .109.75 1.32 1.32 0 0 0 .816.85c.21.076.434.112.659.109.228.004.454-.032.669-.106.188-.067.357-.173.495-.311a1.47 1.47 0 0 0 .313-.523c.075-.236.112-.48.109-.726v-3.771a.111.111 0 0 1 .017-.069.178.178 0 0 1 .069-.047l.134-.025a1.685 1.685 0 0 1 .414 0l.129.025a.2.2 0 0 1 .069.047c.015.02.023.044.022.069l.015 3.764zm9.609-2.084c.004.286-.051.569-.161.835-.103.241-.259.46-.458.638-.217.18-.47.318-.744.403-.334.101-.684.149-1.035.142h-.744v2.222a.095.095 0 0 1-.022.068.129.129 0 0 1-.069.048 1.254 1.254 0 0 1-.337.04 1.328 1.328 0 0 1-.34-.04.119.119 0 0 1-.069-.048.106.106 0 0 1-.022-.068v-5.694a.31.31 0 0 1 .106-.271.37.37 0 0 1 .233-.08h1.39a3.757 3.757 0 0 1 .865.085c.188.044.368.113.535.205a1.647 1.647 0 0 1 .756.881c.076.204.115.418.116.634zm-.909.066a1.24 1.24 0 0 0-.149-.627 1.026 1.026 0 0 0-.364-.38 1.332 1.332 0 0 0-.456-.157c-.15-.02-.302-.03-.453-.03h-.798v2.474h.778c.222.007.444-.026.654-.097.162-.056.309-.147.431-.264.12-.114.21-.252.265-.405.062-.163.094-.336.092-.509v-.005zm9.743 3.964a.713.713 0 0 1 0 .146.309.309 0 0 1-.035.106.162.162 0 0 1-.06.066.135.135 0 0 1-.074.017h-3.119a.367.367 0 0 1-.221-.07.317.317 0 0 1-.084-.12.314.314 0 0 1-.018-.142v-5.506a.285.285 0 0 1 .018-.141.31.31 0 0 1 .084-.118.353.353 0 0 1 .221-.073h3.077a.123.123 0 0 1 .072.017.19.19 0 0 1 .057.063c.012.035.022.07.03.106a.857.857 0 0 1 0 .16c.005.05.005.1 0 .149a.937.937 0 0 1-.03.104.173.173 0 0 1-.057.063.167.167 0 0 1-.072.017h-2.54v1.937h2.178c.026 0 .051.007.072.021a.17.17 0 0 1 .057.061.256.256 0 0 1 .032.104v.307a.346.346 0 0 1-.032.103.124.124 0 0 1-.057.05.122.122 0 0 1-.072.016h-2.178v2.21h2.572a.157.157 0 0 1 .134.078.4.4 0 0 1 .035.107.805.805 0 0 1 .01.162z" fill="#000"></path>
</svg>
